<svg xmlns="http://www.w3.org/2000/svg" viewBox="0 0 780.77 780.77"><defs><style>.cls-1{fill:#a7dde7;}.cls-2{fill:#fff;}</style></defs><g id="Layer_2" data-name="Layer 2"><g id="Layer_1-2" data-name="Layer 1"><path class="cls-1" d="M780.77,390.38c0,3.54,0,7.08-.15,10.6C775.11,608.17,608.16,775.11,401,780.62q-5.28.15-10.59.15c-2.58,0-5.15,0-7.72-.08C173.19,776.63,4.14,607.58.08,398.1Q0,394.24,0,390.38c0-1.62,0-3.23,0-4.85C2.61,173.78,173.77,2.61,385.53,0l4.86,0c2.58,0,5.14,0,7.71.08C607.58,4.13,776.64,173.19,780.69,382.67,780.75,385.24,780.77,387.8,780.77,390.38Z"/><path class="cls-2" d="M231.14,290.49V214.57H217.31V303h50.77V290.49Z"/><path class="cls-2" d="M278.21,214.57V303H292V214.57Z"/><path class="cls-2" d="M304.67,214.57V227H329v76h13.94V227h24.32v-12.4Z"/><path class="cls-2" d="M376.19,214.57V227H400.5v76h13.95V227h24.31v-12.4Z"/><path class="cls-2" d="M465.34,290.49V214.57H451.51V303h50.78V290.49Z"/><path class="cls-2" d="M565.46,227v-12.4h-53V303h53V290.49H526.24V263.08h32.31V250.57H526.24V227Z"/><path class="cls-2" d="M264.39,405a28.71,28.71,0,0,0-6.08-8.7,35.08,35.08,0,0,0-4.05-3.22c5.36-5.6,6.91-11.44,6.91-16.21a23.11,23.11,0,0,0-1.79-9.29A18.8,18.8,0,0,0,253.3,360c-5-3.7-12.15-5.48-21.93-5.48H211.83v88.43h19.54c10,0,18.24-2,24.32-5.84a23,23,0,0,0,11-20.38A29.17,29.17,0,0,0,264.39,405ZM225.65,366.9h5.72c4.65,0,11.09.6,14.42,3.1,1.32.95,2.86,2.62,2.86,6.91,0,2.86-1.19,5.37-3.69,7.75a30.8,30.8,0,0,1-10.25,6.2,52.91,52.91,0,0,1-9.06,2.86Zm23.24,59.71c-3.93,2.51-10,3.82-17.52,3.82h-5.72V406.59a82.38,82.38,0,0,0,13.47-4c1.31-.48,2.5-1.07,3.69-1.55a21.5,21.5,0,0,1,6.8,4.41,14.91,14.91,0,0,1,4.65,11.32A10.79,10.79,0,0,1,248.89,426.61Z"/><path class="cls-2" d="M319.93,411a24.81,24.81,0,0,0,10.25-6.79c4.65-5.13,7.15-12.28,7.15-20.39s-2.5-15.37-7.15-20.5c-3.58-4.05-10.37-8.81-22.05-8.81H281.91v88.43h13.83V413h10.13l22.28,29.91h15.62Zm-24.19-10.37V367h12.39c5.72,0,10,1.55,12.75,4.65,3.34,3.57,3.94,8.58,3.94,12.15s-.6,8.47-3.94,12c-2.74,3.1-7,4.77-12.75,4.77Z"/><path class="cls-2" d="M407.65,366.9V354.51h-53v88.43h53V430.43H368.44V403h32.3V390.5h-32.3V366.9Z"/><path class="cls-2" d="M456.16,350.45l-38.49,92.49h15.25L440.43,424H471.9l7.5,18.95h15.14ZM445.44,411.6l10.72-26.94,10.73,26.94Z"/><path class="cls-2" d="M561.29,367.74A36.05,36.05,0,0,0,547.1,358a49.8,49.8,0,0,0-19.3-3.45h-21v88.43h21a52.13,52.13,0,0,0,19.3-3.45,36.16,36.16,0,0,0,14.19-9.78c7-7.74,10.72-18.47,10.72-31S568.32,375.48,561.29,367.74ZM551,420.42c-5.25,5.72-13,8.7-23.24,8.7h-7.16V368.33h7.16c10.25,0,18,2.86,23.24,8.7,4.65,5.13,7.15,12.64,7.15,21.69S555.69,415.29,551,420.42Z"/><path class="cls-2" d="M262.72,569.43V493.51H248.89v88.43h50.78V569.43Z"/><path class="cls-2" d="M430.06,489.45l-38.5,92.49h15.26l7.51-19h31.46l7.51,19h15.14ZM419.33,550.6l10.73-26.94,10.73,26.94Z"/><path class="cls-2" d="M533.87,505.9V493.51H480.72v88.43h13.82V542h32.3V529.5h-32.3V505.9Z"/><path class="cls-2" d="M178.93,326.52V472.05H597.79V326.52Zm411.4,138.07H186.39V334H590.33Z"/><path class="cls-2" d="M741,354.24q-.66-6.45-1.54-12.85a352.25,352.25,0,0,0-300-300q-6.4-.88-12.85-1.54A358.27,358.27,0,0,0,390.39,38q-16.65,0-33,1.52-6.39.58-12.72,1.41a352.25,352.25,0,0,0-303.7,303.7q-.82,6.33-1.41,12.72Q38,373.73,38,390.38a358.42,358.42,0,0,0,1.82,36.14q.66,6.45,1.54,12.86a352.31,352.31,0,0,0,300,300q6.41.89,12.86,1.54a359,359,0,0,0,75.42-.34q6.52-.71,13-1.68A352.22,352.22,0,0,0,738.93,442.67c.64-4.31,1.21-8.64,1.68-13a359.14,359.14,0,0,0,.34-75.44Zm-9.6,84.7q-.95,6.8-2.19,13.5A343.81,343.81,0,0,1,636.61,631l-45.8-45.8-5.66,5.65L631,636.61h0a343.89,343.89,0,0,1-178.52,92.56q-6.71,1.23-13.5,2.19a347,347,0,0,1-93.83.44c-4.48-.59-8.94-1.26-13.36-2a343.78,343.78,0,0,1-181.92-93.15h0L197,589.39l-5.65-5.65L144.16,631h0A343.78,343.78,0,0,1,51,449c-.78-4.42-1.45-8.88-2-13.36a346.8,346.8,0,0,1-.41-87.35q.81-6.65,1.88-13.2a343.72,343.72,0,0,1,93.72-185.3h0l48.62,48.62,5.66-5.66-48.62-48.62a343.72,343.72,0,0,1,185.3-93.72q6.56-1.08,13.19-1.88a347,347,0,0,1,87.37.41q6.72.89,13.34,2A343.82,343.82,0,0,1,631,144.16h0l-47.21,47.21L589.4,197l47.2-47.21a343.77,343.77,0,0,1,93.17,181.93q1.15,6.62,2,13.34a346.62,346.62,0,0,1-.45,93.85Z"/><path class="cls-2" d="M342.77,584.36,298.31,539.9A28.9,28.9,0,1,1,339.19,499l3.58,3.57,3.57-3.57a28.91,28.91,0,1,1,40.89,40.87Zm-24-81.82a16.91,16.91,0,0,0-11.94,28.87l36,36,36-36a16.91,16.91,0,1,0-23.91-23.92l-12.06,12.08L330.7,507.51A16.78,16.78,0,0,0,318.74,502.54Z"/></g></g></svg>