<?xml version="1.0" standalone="no"?><!-- Generator: Gravit.io --><svg xmlns="http://www.w3.org/2000/svg" xmlns:xlink="http://www.w3.org/1999/xlink" style="isolation:isolate" viewBox="186.646 214.57 418.859 369.793" width="418.859" height="369.793"><g><path d=" M 238.857 290.492 L 238.857 214.57 L 225.025 214.57 L 225.025 303.012 L 275.795 303.012 L 275.795 290.492 L 238.857 290.492 Z " fill="rgb(255,255,255)"/><path d=" M 285.928 214.57 L 299.756 214.57 L 299.756 303.012 L 285.928 303.012 L 285.928 214.57 Z " fill="rgb(255,255,255)"/><path d=" M 312.385 214.57 L 312.385 226.973 L 336.705 226.973 L 336.705 303.012 L 350.646 303.012 L 350.646 226.973 L 374.967 226.973 L 374.967 214.57 L 312.385 214.57 Z " fill="rgb(255,255,255)"/><path d=" M 383.904 214.57 L 383.904 226.973 L 408.217 226.973 L 408.217 303.012 L 422.166 303.012 L 422.166 226.973 L 446.475 226.973 L 446.475 214.57 L 383.904 214.57 Z " fill="rgb(255,255,255)"/><path d=" M 473.057 290.492 L 473.057 214.57 L 459.225 214.57 L 459.225 303.012 L 510.006 303.012 L 510.006 290.492 L 473.057 290.492 Z " fill="rgb(255,255,255)"/><path d=" M 573.174 226.973 L 573.174 214.57 L 520.135 214.57 L 520.135 303.012 L 573.174 303.012 L 573.174 290.492 L 533.955 290.492 L 533.955 263.082 L 566.268 263.082 L 566.268 250.57 L 533.955 250.57 L 533.955 226.973 L 573.174 226.973 Z " fill="rgb(255,255,255)"/><path d=" M 256.607 426.613 C 252.674 429.121 246.596 430.434 239.084 430.434 L 233.365 430.434 L 233.365 406.594 C 237.064 405.762 241.947 404.563 246.834 402.543 C 248.146 402.063 249.334 401.473 250.525 400.992 C 253.275 402.184 255.537 403.613 257.326 405.402 C 260.424 408.383 261.975 412.07 261.975 416.723 C 261.975 421.133 260.307 424.23 256.607 426.613 Z  M 233.365 366.902 L 239.084 366.902 C 243.736 366.902 250.174 367.5 253.506 370 C 254.826 370.953 256.365 372.621 256.365 376.91 C 256.365 379.773 255.174 382.281 252.674 384.66 C 250.295 387.043 246.834 389.07 242.424 390.863 C 239.326 392.172 236.107 393.121 233.365 393.723 L 233.365 366.902 Z  M 272.107 405.043 C 270.674 401.82 268.646 398.961 266.025 396.344 C 264.717 395.152 263.404 394.082 261.975 393.121 C 267.334 387.523 268.885 381.684 268.885 376.91 C 268.885 373.461 268.287 370.363 267.096 367.621 C 265.787 364.641 263.756 362.012 261.014 359.992 C 256.014 356.293 248.865 354.512 239.084 354.512 L 219.545 354.512 L 219.545 442.941 L 239.084 442.941 C 249.096 442.941 257.326 440.922 263.404 437.102 C 266.857 434.844 269.596 431.98 271.506 428.641 C 273.416 425.063 274.365 421.133 274.365 416.723 C 274.365 412.551 273.654 408.621 272.107 405.043 Z " fill="rgb(255,255,255)"/><path d=" M 303.455 400.633 L 303.455 367.023 L 315.846 367.023 C 321.564 367.023 325.857 368.57 328.596 371.672 C 331.936 375.242 332.537 380.254 332.537 383.82 C 332.537 387.281 331.936 392.293 328.596 395.863 C 325.857 398.961 321.564 400.633 315.846 400.633 L 303.455 400.633 Z  M 327.646 411.004 C 332.416 409.332 335.744 406.594 337.896 404.211 C 342.545 399.082 345.045 391.93 345.045 383.82 C 345.045 375.602 342.545 368.453 337.896 363.32 C 334.314 359.273 327.525 354.512 315.846 354.512 L 289.627 354.512 L 289.627 442.941 L 303.455 442.941 L 303.455 413.031 L 313.584 413.031 L 335.865 442.941 L 351.486 442.941 L 327.646 411.004 Z " fill="rgb(255,255,255)"/><path d=" M 415.365 366.902 L 415.365 354.512 L 362.326 354.512 L 362.326 442.941 L 415.365 442.941 L 415.365 430.434 L 376.154 430.434 L 376.154 403.012 L 408.455 403.012 L 408.455 390.5 L 376.154 390.5 L 376.154 366.902 L 415.365 366.902 Z " fill="rgb(255,255,255)"/><path d=" M 453.154 411.602 L 463.877 384.664 L 474.607 411.602 L 453.154 411.602 Z  M 463.877 350.453 L 425.385 442.941 L 440.635 442.941 L 448.146 423.992 L 479.615 423.992 L 487.115 442.941 L 502.256 442.941 L 463.877 350.453 Z " fill="rgb(255,255,255)"/><path d=" M 558.756 420.422 C 553.506 426.141 545.768 429.121 535.518 429.121 L 528.357 429.121 L 528.357 368.332 L 535.518 368.332 C 545.768 368.332 553.506 371.191 558.756 377.031 C 563.404 382.16 565.904 389.672 565.904 398.723 C 565.904 407.66 563.404 415.293 558.756 420.422 Z  M 569.006 367.742 C 565.186 363.441 560.424 360.113 554.814 357.961 C 549.096 355.582 542.666 354.512 535.518 354.512 L 514.537 354.512 L 514.537 442.941 L 535.518 442.941 C 542.666 442.941 549.096 441.75 554.814 439.492 C 560.424 437.344 565.186 434 569.006 429.711 C 576.037 421.973 579.725 411.242 579.725 398.723 C 579.725 386.211 576.037 375.484 569.006 367.742 Z " fill="rgb(255,255,255)"/><path d=" M 270.436 569.434 L 270.436 493.512 L 256.607 493.512 L 256.607 581.941 L 307.385 581.941 L 307.385 569.434 L 270.436 569.434 Z " fill="rgb(255,255,255)"/><path d=" M 427.045 550.602 L 437.775 523.664 L 448.506 550.602 L 427.045 550.602 Z  M 437.775 489.453 L 399.275 581.941 L 414.537 581.941 L 422.045 562.992 L 453.506 562.992 L 461.018 581.941 L 476.154 581.941 L 437.775 489.453 Z " fill="rgb(255,255,255)"/><path d=" M 541.584 505.902 L 541.584 493.512 L 488.436 493.512 L 488.436 581.941 L 502.256 581.941 L 502.256 542.023 L 534.557 542.023 L 534.557 529.5 L 502.256 529.5 L 502.256 505.902 L 541.584 505.902 Z " fill="rgb(255,255,255)"/><path d=" M 598.045 464.594 L 194.104 464.594 L 194.104 333.98 L 598.045 333.98 L 598.045 464.594 Z  M 186.646 472.051 L 605.506 472.051 L 605.506 326.523 L 186.646 326.523 L 186.646 472.051 Z " fill="rgb(255,255,255)"/><path d=" M 326.459 502.547 C 321.947 502.547 317.709 504.309 314.518 507.504 C 311.318 510.703 309.561 514.949 309.561 519.465 C 309.561 523.98 311.318 528.223 314.51 531.418 L 350.486 567.391 L 386.459 531.418 C 389.654 528.223 391.412 523.98 391.412 519.465 C 391.412 514.949 389.654 510.703 386.459 507.508 C 383.264 504.309 379.018 502.547 374.502 502.547 C 369.982 502.547 365.736 504.309 362.545 507.504 L 350.49 519.578 L 338.42 507.508 C 335.225 504.309 330.979 502.547 326.459 502.547 Z  M 350.486 584.363 L 306.025 539.902 C 300.564 534.441 297.561 527.184 297.561 519.465 C 297.561 511.742 300.564 504.484 306.025 499.027 C 311.479 493.559 318.74 490.547 326.459 490.547 C 334.189 490.547 341.451 493.559 346.912 499.031 L 350.482 502.602 L 354.053 499.027 C 359.51 493.559 366.771 490.547 374.502 490.547 C 382.229 490.547 389.49 493.559 394.951 499.031 C 400.404 504.484 403.412 511.742 403.412 519.465 C 403.412 527.184 400.404 534.441 394.943 539.902 L 350.486 584.363 Z " fill="rgb(255,255,255)"/></g></svg>